# Blender v2.79 (sub 0) OBJ File: ''
# www.blender.org
mtllib house.mtl
o Cube
v 4.000000 -0.063324 -4.000000
v 4.000000 -0.063324 4.000000
v -4.000000 -0.063324 3.999999
v -3.999999 -0.063324 -4.000001
v 4.000002 7.936676 -3.999998
v 3.999997 7.936676 4.000002
v -4.000001 7.936676 3.999999
v -4.000000 7.936676 -4.000000
v 4.887983 7.936676 -4.887978
v 4.887978 7.936676 4.887983
v -4.887980 7.936676 -4.887980
v -4.887982 7.936676 4.887979
v 1.061347 10.877876 -1.061345
v 1.061346 10.877876 1.061348
v -1.061347 10.877876 -1.061346
v -1.061347 10.877876 1.061347
vt 0.710349 0.778743
vt 0.991392 0.497699
vt 0.991392 0.778743
vt 0.325992 0.292938
vt 0.013754 0.324133
vt 0.044949 0.292937
vt 0.697866 0.785940
vt 0.416823 0.504897
vt 0.697866 0.504897
vt 0.044950 0.011894
vt 0.325993 0.011895
vt 0.325954 0.504934
vt 0.044911 0.785977
vt 0.044911 0.504934
vt 0.413941 0.010940
vt 0.694984 0.291984
vt 0.413941 0.291984
vt 0.357187 0.324133
vt 0.148185 0.493685
vt 0.385628 0.817135
vt 0.416823 0.785940
vt 0.325954 0.785977
vt 0.013716 0.817172
vt 0.726179 0.323179
vt 0.382746 0.323179
vt 0.818947 0.444530
vt 0.893518 0.369959
vt 0.893518 0.444530
vt 0.729061 0.817135
vt 0.520059 0.986687
vt 0.357149 0.817172
vt 0.148147 0.986724
vt 0.517177 0.492731
vt 0.710349 0.497699
vt 0.694984 0.010940
vt 0.222756 0.493685
vt 0.818947 0.369959
vt 0.594630 0.986687
vt 0.222718 0.986725
vt 0.591748 0.492731
vn 0.0000 -1.0000 0.0000
vn 1.0000 -0.0000 0.0000
vn 0.0000 -0.0000 1.0000
vn -1.0000 -0.0000 -0.0000
vn 0.0000 0.0000 -1.0000
vn -0.0000 0.7929 0.6094
vn 0.0000 1.0000 0.0000
vn 0.6094 0.7929 0.0000
vn -0.6094 0.7929 0.0000
vn 0.0000 0.7929 -0.6094
usemtl Material
s off
f 2/1/1 4/2/1 1/3/1
f 6/4/1 12/5/1 7/6/1
f 5/7/2 2/8/2 1/9/2
f 6/4/3 3/10/3 2/11/3
f 3/12/4 8/13/4 4/14/4
f 1/15/5 8/16/5 5/17/5
f 10/18/6 16/19/6 12/5/6
f 5/7/1 10/20/1 6/21/1
f 7/22/1 11/23/1 8/13/1
f 5/17/1 11/24/1 9/25/1
f 15/26/7 14/27/7 13/28/7
f 9/29/8 14/30/8 10/20/8
f 12/31/9 15/32/9 11/23/9
f 11/24/10 13/33/10 9/25/10
f 2/1/1 3/34/1 4/2/1
f 6/4/1 10/18/1 12/5/1
f 5/7/2 6/21/2 2/8/2
f 6/4/3 7/6/3 3/10/3
f 3/12/4 7/22/4 8/13/4
f 1/15/5 4/35/5 8/16/5
f 10/18/6 14/36/6 16/19/6
f 5/7/1 9/29/1 10/20/1
f 7/22/1 12/31/1 11/23/1
f 5/17/1 8/16/1 11/24/1
f 15/26/7 16/37/7 14/27/7
f 9/29/8 13/38/8 14/30/8
f 12/31/9 16/39/9 15/32/9
f 11/24/10 15/40/10 13/33/10
