# Blender v2.79 (sub 0) OBJ File: ''
# www.blender.org
mtllib column.mtl
o Cube.001
v 1.000000 -0.200000 -1.000000
v -1.000000 -0.200000 1.000000
v -1.000000 -0.200000 -1.000000
v 1.000000 0.200000 -0.999999
v 0.787977 0.200000 0.787978
v 0.999999 0.200000 1.000001
v 1.000000 -0.200000 1.000000
v -1.000000 0.200000 -1.000000
v -0.787978 0.200000 0.787978
v -0.787978 6.007725 -0.787978
v -0.787978 0.200000 -0.787978
v 0.787978 0.200000 -0.787978
v -1.000000 0.200000 1.000000
v 0.787977 6.007725 0.787978
v -0.980512 6.078082 0.980511
v -0.787978 6.007725 0.787978
v 0.787978 6.007725 -0.787978
v 0.980511 6.078082 0.980512
v -0.980512 6.309104 0.980511
v -0.980512 6.078082 -0.980512
v 0.980512 6.078082 -0.980511
v -0.980512 6.309104 -0.980512
v 0.980511 6.309104 0.980512
v 0.980512 6.309104 -0.980511
vt 0.833272 0.000000
vt 0.681926 0.006989
vt 0.663979 0.000000
vt 0.663979 0.329623
vt 0.831989 0.263699
vt 0.831989 0.329623
vt 0.831989 0.131849
vt 0.663979 0.197774
vt 0.663979 0.131849
vt 0.831989 0.263699
vt 0.663979 0.197774
vt 0.831989 0.197774
vt 1.000000 0.131849
vt 0.831989 0.197774
vt 0.831989 0.131849
vt 0.315692 0.000000
vt 0.182292 0.949926
vt 0.182292 0.000000
vt 0.833272 0.065925
vt 0.681926 0.058936
vt 0.815325 0.058936
vt 0.815325 0.006989
vt 0.663979 0.065925
vt 0.016297 0.050074
vt 0.165995 0.037787
vt 0.149697 0.050074
vt 0.348287 1.000000
vt 0.481687 0.050074
vt 0.481687 1.000000
vt 0.016298 1.000000
vt 0.149698 1.000000
vt 0.514281 1.000000
vt 0.647681 0.050074
vt 0.647681 1.000000
vt 0.000000 0.037787
vt 0.165995 0.000000
vt 0.514281 0.050074
vt 0.663979 0.037787
vt 0.315692 0.949926
vt 0.165995 0.962213
vt 0.331989 0.037787
vt 0.497984 0.037787
vt 0.831989 0.197774
vt 0.997984 0.262414
vt 0.831989 0.262414
vt 0.663979 0.000000
vt 0.331989 0.962213
vt 0.165995 1.000000
vt 0.497984 0.000000
vt 0.663979 0.263699
vt 0.831989 0.197774
vt 0.663979 0.263699
vt 1.000000 0.197774
vt 0.348287 0.050074
vt 0.000000 0.000000
vt 0.997984 0.197774
vt 0.331989 1.000000
vt 0.331989 0.000000
vn -0.0000 1.0000 0.0000
vn 1.0000 0.0000 0.0000
vn -0.0000 -0.0000 1.0000
vn -1.0000 0.0000 0.0000
vn 0.0000 0.0000 -1.0000
vn -0.0000 -0.9393 0.3432
vn -0.0000 -0.9392 0.3432
vn 0.3432 -0.9393 0.0000
vn -0.3432 -0.9393 0.0000
vn 0.0000 -0.9393 -0.3432
usemtl Material.001
s 1
f 4/1/1 5/2/1 6/3/1
f 4/4/2 7/5/2 1/6/2
f 6/7/3 2/8/3 7/9/3
f 2/10/4 8/11/4 3/12/4
f 1/13/5 8/14/5 4/15/5
f 9/16/4 10/17/4 11/18/4
f 8/19/1 9/20/1 11/21/1
f 8/19/1 12/22/1 4/1/1
f 13/23/1 5/2/1 9/20/1
f 14/24/6 15/25/7 16/26/7
f 11/27/5 17/28/5 12/29/5
f 5/30/3 16/26/3 9/31/3
f 12/32/2 14/33/2 5/34/2
f 18/35/3 19/36/3 15/25/3
f 17/37/8 18/38/8 14/33/8
f 16/39/9 20/40/9 10/17/9
f 17/28/10 20/41/10 21/42/10
f 22/43/1 23/44/1 24/45/1
f 21/42/2 23/46/2 18/38/2
f 15/47/4 22/48/4 20/40/4
f 20/41/5 24/49/5 21/42/5
f 4/1/1 12/22/1 5/2/1
f 4/4/2 6/50/2 7/5/2
f 6/7/3 13/51/3 2/8/3
f 2/10/4 13/52/4 8/11/4
f 1/13/5 3/53/5 8/14/5
f 9/16/4 16/39/4 10/17/4
f 8/19/1 13/23/1 9/20/1
f 8/19/1 11/21/1 12/22/1
f 13/23/1 6/3/1 5/2/1
f 14/24/6 18/35/6 15/25/7
f 11/27/5 10/54/5 17/28/5
f 5/30/3 14/24/3 16/26/3
f 12/32/2 17/37/2 14/33/2
f 18/35/3 23/55/3 19/36/3
f 17/37/8 21/42/8 18/38/8
f 16/39/9 15/47/9 20/40/9
f 17/28/10 10/54/10 20/41/10
f 22/43/1 19/56/1 23/44/1
f 21/42/2 24/49/2 23/46/2
f 15/47/4 19/57/4 22/48/4
f 20/41/5 22/58/5 24/49/5
